<svg aria-hidden="true" style="position: absolute; width: 0; height: 0; overflow: hidden;" version="1.1" xmlns="http://www.w3.org/2000/svg" xmlns:xlink="http://www.w3.org/1999/xlink">
<defs>
<symbol id="icon-clock" viewBox="0 0 33 32">
<path fill="#95e1d3" style="fill: var(--color1, #95e1d3)" d="M16.339 4.775c-2.266 0-4.481 0.657-6.366 1.886-1.886 1.237-3.356 2.993-4.221 5.043-0.874 2.050-1.098 4.308-0.657 6.479 0.441 2.18 1.54 4.178 3.14 5.743 1.6 1.574 3.642 2.638 5.864 3.071s4.532 0.216 6.626-0.631c2.093-0.856 3.884-2.292 5.147-4.135 1.254-1.851 1.929-4.013 1.929-6.236 0-2.976-1.211-5.83-3.365-7.932-2.145-2.102-5.060-3.287-8.096-3.287zM25.871 16.434h1.021c-0.104 2.439-1.081 4.757-2.777 6.556l-0.718-0.709c-0.043-0.035-0.095-0.069-0.147-0.095-0.052-0.017-0.112-0.026-0.173-0.026-0.052 0-0.112 0.009-0.164 0.026-0.061 0.026-0.104 0.061-0.147 0.095-0.043 0.043-0.078 0.095-0.095 0.147-0.026 0.052-0.035 0.112-0.035 0.164 0 0.061 0.009 0.112 0.035 0.173 0.017 0.052 0.052 0.095 0.095 0.138l0.718 0.701c-1.834 1.661-4.204 2.621-6.695 2.725v-1.003c0-0.112-0.052-0.225-0.138-0.311-0.078-0.078-0.19-0.121-0.311-0.121s-0.234 0.043-0.32 0.121c-0.078 0.087-0.13 0.199-0.13 0.311v1.003c-2.491-0.104-4.861-1.064-6.695-2.725l0.718-0.701c0.043-0.043 0.078-0.087 0.095-0.138 0.026-0.061 0.035-0.112 0.035-0.173 0-0.052-0.009-0.112-0.035-0.164-0.017-0.052-0.052-0.104-0.095-0.147-0.043-0.035-0.095-0.069-0.147-0.095-0.052-0.017-0.112-0.026-0.173-0.026-0.052 0-0.112 0.009-0.164 0.026-0.061 0.026-0.104 0.061-0.147 0.095l-0.718 0.709c-1.695-1.799-2.681-4.117-2.777-6.556h1.021c0.112 0 0.225-0.052 0.311-0.13 0.087-0.087 0.13-0.199 0.13-0.311s-0.043-0.225-0.13-0.311c-0.087-0.078-0.199-0.13-0.311-0.13h-1.021c0.095-2.431 1.081-4.757 2.777-6.556l0.718 0.709c0.086 0.078 0.199 0.13 0.311 0.13 0.121 0 0.234-0.052 0.32-0.13 0.086-0.086 0.13-0.199 0.13-0.311s-0.043-0.225-0.13-0.311l-0.718-0.701c1.834-1.652 4.204-2.621 6.695-2.725v1.003c0 0.112 0.052 0.225 0.13 0.311 0.087 0.078 0.199 0.13 0.32 0.13s0.234-0.052 0.311-0.13c0.087-0.087 0.138-0.199 0.138-0.311v-1.003c2.491 0.104 4.861 1.073 6.695 2.725l-0.718 0.701c-0.043 0.043-0.078 0.086-0.095 0.147-0.026 0.052-0.035 0.104-0.035 0.164s0.009 0.112 0.035 0.164c0.017 0.052 0.052 0.104 0.095 0.147 0.043 0.035 0.087 0.069 0.147 0.095 0.052 0.017 0.112 0.035 0.164 0.035 0.061 0 0.121-0.017 0.173-0.035 0.052-0.026 0.104-0.061 0.147-0.095l0.718-0.709c1.687 1.799 2.673 4.126 2.777 6.556h-1.021c-0.121 0-0.234 0.052-0.311 0.13-0.087 0.086-0.138 0.199-0.138 0.311s0.052 0.225 0.138 0.311c0.078 0.078 0.19 0.13 0.311 0.13v0z"></path>
<path fill="#95e1d3" style="fill: var(--color1, #95e1d3)" d="M21.417 15.552h-2.828c-0.087-0.432-0.303-0.83-0.623-1.15-0.329-0.311-0.735-0.528-1.176-0.614v-4.325c0-0.121-0.052-0.225-0.138-0.311-0.078-0.078-0.19-0.13-0.311-0.13s-0.234 0.052-0.32 0.13c-0.078 0.086-0.13 0.19-0.13 0.311v4.325c-0.407 0.078-0.787 0.268-1.098 0.536-0.303 0.277-0.536 0.623-0.657 1.021-0.121 0.389-0.13 0.804-0.026 1.194 0.104 0.398 0.311 0.761 0.605 1.047s0.666 0.493 1.064 0.597c0.407 0.095 0.83 0.087 1.228-0.035s0.753-0.337 1.038-0.64c0.277-0.303 0.467-0.675 0.545-1.073h2.828c0.112 0 0.234-0.052 0.311-0.13 0.087-0.087 0.13-0.199 0.13-0.311s-0.043-0.225-0.13-0.311c-0.078-0.078-0.199-0.13-0.311-0.13zM16.339 17.369c-0.277 0-0.554-0.078-0.778-0.234-0.234-0.147-0.415-0.363-0.519-0.614s-0.138-0.528-0.078-0.796c0.052-0.268 0.182-0.51 0.381-0.701 0.199-0.199 0.45-0.329 0.718-0.381 0.277-0.052 0.554-0.026 0.813 0.078s0.476 0.285 0.631 0.51c0.156 0.225 0.234 0.493 0.234 0.761 0 0.363-0.147 0.718-0.407 0.969-0.268 0.259-0.623 0.407-0.995 0.407z"></path>
<path fill="#95e1d3" style="fill: var(--color1, #95e1d3)" d="M31.961 2.232l-1.557-1.531c-0.467-0.45-1.090-0.701-1.739-0.701s-1.271 0.251-1.73 0.701l-1.228 1.194c-0.043 0.043-0.069 0.095-0.095 0.147s-0.035 0.112-0.035 0.164c0 0.061 0.009 0.112 0.035 0.173 0.026 0.052 0.052 0.095 0.095 0.138l1.159 1.133-1.713 1.687c-2.491-1.981-5.605-3.062-8.814-3.062s-6.323 1.081-8.814 3.062l-1.721-1.687 1.159-1.133c0.043-0.043 0.078-0.087 0.104-0.147 0.017-0.052 0.035-0.104 0.035-0.164s-0.017-0.112-0.035-0.164c-0.026-0.052-0.061-0.104-0.104-0.147l-1.22-1.194c-0.458-0.45-1.090-0.701-1.739-0.701s-1.272 0.251-1.73 0.701l-1.566 1.531c-0.458 0.45-0.709 1.055-0.709 1.695 0 0.631 0.251 1.246 0.709 1.695l1.228 1.194c0.043 0.043 0.095 0.078 0.147 0.095 0.052 0.026 0.112 0.035 0.173 0.035 0.052 0 0.112-0.009 0.164-0.035 0.061-0.017 0.104-0.052 0.147-0.095l1.159-1.133 1.721 1.687c-2.154 2.595-3.261 5.864-3.114 9.203s1.531 6.505 3.892 8.909l-2.197 4.844c-0.087 0.182-0.121 0.381-0.104 0.571 0.017 0.199 0.087 0.389 0.19 0.562 0.112 0.164 0.26 0.294 0.441 0.389s0.381 0.147 0.58 0.147h1.116c0.234 0 0.467-0.069 0.666-0.19 0.19-0.13 0.346-0.303 0.441-0.51l1.643-3.616c2.206 1.332 4.749 2.033 7.335 2.033s5.129-0.701 7.335-2.033l1.635 3.616c0.095 0.208 0.251 0.381 0.45 0.51 0.199 0.121 0.424 0.19 0.657 0.19h1.124c0.199 0 0.398-0.052 0.58-0.147 0.173-0.095 0.329-0.225 0.433-0.389 0.112-0.173 0.182-0.363 0.199-0.562 0.009-0.19-0.026-0.389-0.104-0.571l-2.206-4.844c2.37-2.405 3.754-5.57 3.901-8.909 0.138-3.339-0.969-6.608-3.114-9.203l1.713-1.687 1.168 1.133c0.035 0.043 0.087 0.078 0.138 0.095 0.061 0.026 0.112 0.035 0.173 0.035s0.121-0.009 0.173-0.035c0.052-0.017 0.104-0.052 0.147-0.095l1.22-1.194c0.458-0.45 0.718-1.064 0.718-1.695 0-0.64-0.26-1.246-0.718-1.695zM2.258 5.89l-0.908-0.891c-0.294-0.285-0.458-0.675-0.458-1.073 0-0.407 0.164-0.796 0.458-1.081l1.557-1.531c0.294-0.285 0.692-0.441 1.099-0.441 0.415 0 0.813 0.156 1.107 0.441l0.908 0.891-3.763 3.685zM4.359 5.069l0.813-0.796 1.678 1.635c-0.285 0.26-0.554 0.519-0.813 0.796l-1.678-1.635zM6.548 30.931c-0.026 0.061-0.069 0.104-0.121 0.138s-0.112 0.052-0.173 0.052h-1.116c-0.052 0-0.104-0.017-0.156-0.035-0.043-0.026-0.087-0.069-0.112-0.112s-0.043-0.087-0.052-0.138c0-0.052 0.009-0.104 0.026-0.156l2.067-4.541c0.424 0.381 0.874 0.727 1.341 1.047l-1.704 3.745zM27.809 30.975c-0.035 0.052-0.069 0.087-0.121 0.112-0.043 0.017-0.095 0.035-0.147 0.035h-1.124c-0.061 0-0.121-0.017-0.173-0.052s-0.087-0.078-0.112-0.138l-1.704-3.745c0.467-0.32 0.908-0.666 1.341-1.047l2.067 4.541c0.017 0.052 0.026 0.104 0.026 0.156-0.009 0.052-0.026 0.095-0.052 0.138v0zM16.339 28.838c-2.595 0-5.138-0.753-7.292-2.162s-3.84-3.417-4.835-5.769c-0.995-2.344-1.254-4.93-0.744-7.421 0.502-2.491 1.756-4.775 3.59-6.574s4.178-3.019 6.721-3.52c2.543-0.493 5.181-0.234 7.577 0.735 2.405 0.969 4.446 2.621 5.89 4.731s2.214 4.593 2.214 7.136c-0.009 3.408-1.393 6.669-3.849 9.082-2.457 2.405-5.795 3.763-9.273 3.763zM26.641 6.704c-0.259-0.277-0.528-0.545-0.813-0.796l1.669-1.635 0.813 0.796-1.669 1.635zM31.329 5l-0.908 0.891-3.763-3.685 0.908-0.891c0.294-0.285 0.692-0.441 1.099-0.441 0.415 0 0.813 0.156 1.099 0.441l1.566 1.531c0.294 0.285 0.458 0.675 0.458 1.081 0 0.398-0.164 0.787-0.458 1.073v0z"></path>
</symbol>
<symbol id="icon-graphic" viewBox="0 0 32 32">
<path fill="#95e1d3" style="fill: var(--color1, #95e1d3)" d="M30.045 12.765h-5.63v17.358h-1.868v-13.267h-5.63v13.267h-1.877v-16.865h-5.622v16.865h-1.842v-9.349h-5.63v9.349h-1.946v1.877h32v-1.877h-1.955v-17.358zM5.699 22.651v1.868h-1.877v-1.868h1.877zM3.823 30.123v-3.728h1.877v3.728h-1.877zM13.163 15.135v1.877h-1.868v-1.877h1.868zM11.295 30.123v-11.235h1.868v11.235h-1.868zM20.67 18.733v1.868h-1.877v-1.868h1.877zM18.794 30.123v-7.645h1.877v7.645h-1.877zM28.169 14.642v1.877h-1.877v-1.877h1.877zM26.292 30.123v-11.728h1.877v11.728h-1.877z"></path>
<path fill="#95e1d3" style="fill: var(--color1, #95e1d3)" d="M26.387 0v1.868h2.404l-8.64 8.64-7.152-7.152-12.999 12.99 1.332 1.332 11.667-11.676 7.152 7.161 9.972-9.963v2.413h1.877v-5.613h-5.613z"></path>
</symbol>
<symbol id="icon-home" viewBox="0 0 32 32">
<path fill="#95e1d3" style="fill: var(--color1, #95e1d3)" d="M23.438 8.865c-0.112-0.112-0.277-0.182-0.441-0.182s-0.329 0.069-0.441 0.182c-0.121 0.121-0.182 0.277-0.182 0.441s0.061 0.329 0.182 0.441c0.112 0.121 0.277 0.19 0.441 0.19s0.329-0.069 0.441-0.19c0.112-0.112 0.182-0.277 0.182-0.441s-0.069-0.32-0.182-0.441z"></path>
<path fill="#95e1d3" style="fill: var(--color1, #95e1d3)" d="M9.367 17.617h-4.999c-0.346 0-0.623 0.285-0.623 0.631v4.999c0 0.346 0.277 0.623 0.623 0.623h4.999c0.346 0 0.631-0.277 0.631-0.623v-4.999c0-0.346-0.285-0.631-0.631-0.631zM8.744 22.625h-3.745v-3.753h3.745v3.753z"></path>
<path fill="#95e1d3" style="fill: var(--color1, #95e1d3)" d="M31.611 13.103c-0.233-0.095-0.502-0.043-0.683 0.138l-6.365 6.365c0 0 0 0 0 0s0 0 0 0l-7.429 7.429c0 0 0 0 0 0s0 0 0 0l-3.892 3.892c-0.182 0.182-0.233 0.45-0.138 0.683 0.104 0.233 0.329 0.389 0.579 0.389h17.687c0.346 0 0.623-0.285 0.623-0.631v-17.686c0-0.251-0.147-0.476-0.381-0.579zM30.746 30.746h-15.55l2.378-2.387 0.597 0.597c0.121 0.121 0.285 0.182 0.441 0.182 0.164 0 0.32-0.061 0.45-0.182 0.242-0.242 0.242-0.64 0-0.882l-0.597-0.597 1.591-1.591 0.588 0.597c0.13 0.121 0.285 0.182 0.45 0.182 0.156 0 0.32-0.061 0.441-0.182 0.242-0.242 0.242-0.64 0-0.882l-0.597-0.597 1.591-1.591 0.597 0.597c0.121 0.121 0.277 0.182 0.441 0.182 0.156 0 0.32-0.061 0.441-0.182 0.242-0.242 0.242-0.64 0-0.882l-0.597-0.597 1.591-1.591 0.597 0.597c0.121 0.121 0.277 0.182 0.441 0.182 0.156 0 0.32-0.061 0.441-0.182 0.242-0.251 0.242-0.64 0-0.891l-0.597-0.588 1.591-1.591 0.597 0.597c0.121 0.121 0.285 0.182 0.441 0.182 0.164 0 0.32-0.061 0.441-0.182 0.242-0.251 0.242-0.64 0-0.891l-0.597-0.597 2.387-2.378v15.55z"></path>
<path fill="#95e1d3" style="fill: var(--color1, #95e1d3)" d="M28.489 20.653c-0.233-0.104-0.51-0.043-0.683 0.13l-7.023 7.023c-0.173 0.173-0.233 0.45-0.13 0.683 0.095 0.233 0.32 0.381 0.571 0.381h7.023c0.346 0 0.623-0.277 0.623-0.623v-7.023c0-0.251-0.147-0.476-0.381-0.571zM27.624 27.624h-4.886l4.886-4.886v4.886z"></path>
<path fill="#95e1d3" style="fill: var(--color1, #95e1d3)" d="M28.938 9.323c-0.173-0.173-0.432-0.225-0.657-0.147l-4.272 1.565c-0.078 0.035-0.156 0.078-0.225 0.147l-1.202 1.202-7.836-7.836c-0.112-0.121-0.268-0.19-0.441-0.19-0.164 0-0.32 0.069-0.441 0.19l-9.427 9.427h-2.309l12.177-12.177 6.685 6.685c0.242 0.242 0.64 0.242 0.882 0 0.251-0.242 0.251-0.64 0-0.882l-7.118-7.127c-0.251-0.251-0.64-0.251-0.891 0l-13.682 13.682c-0.182 0.182-0.234 0.45-0.138 0.683s0.329 0.389 0.579 0.389h0.623v16.432c0 0.346 0.277 0.631 0.623 0.631h9.937c0.346 0 0.623-0.285 0.623-0.631s-0.277-0.623-0.623-0.623h-9.306v-15.81h2.197c0.164 0 0.32-0.069 0.441-0.182l9.168-9.176 7.395 7.395-9.263 9.263v-5.613h4.368c0.346 0 0.631-0.285 0.631-0.623 0-0.346-0.285-0.631-0.631-0.631h-4.999c-0.346 0-0.623 0.285-0.623 0.631v7.248c0 0.069 0.017 0.138 0.035 0.208l-0.562 0.562c-0.986 0.986-0.986 2.595 0 3.581 0.502 0.502 1.15 0.744 1.799 0.744s1.297-0.242 1.79-0.735l5.276-5.276c0.242-0.242 0.242-0.64 0-0.882s-0.64-0.242-0.882 0l-3.996 3.996-1.825-1.825 11.425-11.416 1.816 1.816-4.359 4.368c-0.242 0.242-0.242 0.64 0 0.882s0.64 0.242 0.882 0l4.791-4.791c0.069-0.069 0.112-0.147 0.147-0.225l1.565-4.272c0.078-0.225 0.026-0.484-0.147-0.657zM13.76 26.326l-0.398 0.389c-0.242 0.242-0.562 0.381-0.908 0.381s-0.666-0.138-0.908-0.381c-0.242-0.242-0.381-0.562-0.381-0.908s0.138-0.666 0.381-0.908l0.389-0.398 1.825 1.825zM26.69 12.878l-1.306-1.306 2.058-0.752-0.752 2.058z"></path>
<path fill="#95e1d3" style="fill: var(--color1, #95e1d3)" d="M21.042 19.927c-0.121-0.112-0.277-0.182-0.441-0.182s-0.329 0.069-0.45 0.182c-0.112 0.121-0.182 0.277-0.182 0.441s0.069 0.329 0.182 0.441c0.121 0.121 0.277 0.182 0.45 0.182 0.164 0 0.32-0.061 0.441-0.182 0.112-0.112 0.182-0.277 0.182-0.441s-0.069-0.32-0.182-0.441z"></path>
<path fill="#95e1d3" style="fill: var(--color1, #95e1d3)" d="M14.305 9.436c-1.306 0-2.37 1.064-2.37 2.37 0 1.315 1.064 2.378 2.37 2.378 1.315 0 2.378-1.064 2.378-2.378 0-1.306-1.064-2.37-2.378-2.37zM14.305 12.93c-0.614 0-1.124-0.502-1.124-1.124 0-0.614 0.51-1.124 1.124-1.124 0.623 0 1.124 0.51 1.124 1.124 0 0.623-0.502 1.124-1.124 1.124z"></path>
</symbol>
<symbol id="icon-mac" viewBox="0 0 32 32">
<path fill="#95e1d3" style="fill: var(--color1, #95e1d3)" d="M30.4 0h-28.809c-0.882 0-1.591 0.709-1.591 1.591v19.209c0 0.882 0.709 1.6 1.591 1.6h9.072c1.47 0 2.664 1.194 2.664 2.664s-1.194 2.664-2.664 2.664c-0.009 0-0.017 0.009-0.026 0.009-0.035 0-0.069 0.009-0.112 0.017-0.026 0.009-0.061 0.017-0.086 0.026-0.026 0.017-0.061 0.035-0.086 0.061-0.026 0.017-0.052 0.035-0.078 0.061-0.017 0.026-0.035 0.052-0.052 0.078-0.026 0.026-0.043 0.061-0.061 0.095 0 0.009-0.009 0.017-0.009 0.017l-1.064 3.2c-0.095 0.285 0.061 0.588 0.337 0.675 0.052 0.017 0.112 0.035 0.173 0.035h12.8c0.294-0.009 0.528-0.242 0.528-0.536 0-0.061-0.009-0.112-0.026-0.173l-1.064-3.2c0 0-0.009-0.009-0.009-0.017-0.017-0.035-0.035-0.069-0.061-0.095-0.017-0.026-0.035-0.052-0.052-0.078-0.026-0.026-0.052-0.043-0.078-0.061-0.026-0.026-0.061-0.043-0.087-0.061-0.035-0.009-0.061-0.017-0.087-0.026-0.043-0.009-0.078-0.017-0.121-0.017 0 0-0.009-0.009-0.017-0.009-1.47 0-2.664-1.194-2.664-2.664s1.194-2.664 2.664-2.664h9.072c0.882 0 1.591-0.718 1.591-1.6v-19.209c0-0.882-0.709-1.591-1.591-1.591zM17.6 25.064c0 1.911 1.436 3.511 3.338 3.71l0.718 2.154h-11.321l0.718-2.154c1.903-0.199 3.338-1.799 3.347-3.71 0-1.003-0.406-1.972-1.133-2.664h5.457c-0.727 0.692-1.133 1.661-1.124 2.664zM30.928 20.8c0 0.294-0.233 0.528-0.528 0.528h-28.809c-0.294 0-0.528-0.233-0.528-0.528v-1.6h29.864v1.6zM1.064 18.128v-16.536c0-0.294 0.234-0.528 0.528-0.528h28.809c0.294 0 0.528 0.234 0.528 0.528v16.536h-29.864z"></path>
<path fill="#95e1d3" style="fill: var(--color1, #95e1d3)" d="M22.564 8.026l-1.539-0.519 0.727-1.444c0.104-0.208 0.061-0.45-0.095-0.614l-1.514-1.514c-0.164-0.156-0.407-0.199-0.614-0.095l-1.453 0.726-0.51-1.539c-0.069-0.216-0.277-0.363-0.502-0.363h-2.136c-0.225 0-0.432 0.147-0.502 0.363l-0.51 1.539-1.453-0.727c-0.208-0.104-0.45-0.061-0.614 0.095l-1.514 1.513c-0.156 0.164-0.199 0.407-0.095 0.614l0.726 1.444-1.539 0.519c-0.216 0.069-0.363 0.277-0.363 0.502v2.136c0 0.225 0.147 0.432 0.363 0.502l1.539 0.51-0.726 1.453c-0.104 0.208-0.061 0.45 0.095 0.614l1.514 1.514c0.164 0.156 0.406 0.199 0.614 0.095l1.453-0.726 0.51 1.539c0.069 0.216 0.277 0.363 0.502 0.363h2.136c0.225 0 0.432-0.147 0.502-0.363l0.519-1.539 1.444 0.726c0.208 0.104 0.45 0.061 0.614-0.095l1.514-1.514c0.156-0.164 0.199-0.406 0.095-0.614l-0.727-1.453 1.539-0.51c0.216-0.069 0.363-0.277 0.363-0.502v-2.136c0-0.225-0.147-0.432-0.363-0.502zM21.864 10.275l-1.756 0.588c-0.277 0.095-0.432 0.398-0.337 0.675 0.009 0.026 0.017 0.052 0.026 0.069l0.83 1.652-0.969 0.969-1.652-0.83c-0.259-0.13-0.579-0.026-0.718 0.242-0.009 0.017-0.017 0.043-0.026 0.069l-0.588 1.756h-1.358l-0.588-1.756c-0.095-0.277-0.398-0.432-0.675-0.337-0.026 0.009-0.052 0.017-0.069 0.026l-1.652 0.83-0.969-0.969 0.83-1.652c0.13-0.259 0.026-0.579-0.242-0.709-0.026-0.017-0.043-0.026-0.069-0.035l-1.756-0.588v-1.358l1.756-0.588c0.277-0.095 0.432-0.398 0.337-0.675-0.009-0.026-0.017-0.052-0.026-0.069l-0.83-1.652 0.969-0.969 1.652 0.83c0.259 0.13 0.579 0.026 0.709-0.242 0.017-0.026 0.026-0.043 0.035-0.069l0.588-1.756h1.358l0.588 1.756c0.095 0.277 0.398 0.432 0.675 0.337 0.026-0.009 0.052-0.017 0.078-0.026l1.652-0.83 0.96 0.969-0.822 1.652c-0.138 0.259-0.026 0.579 0.233 0.709 0.026 0.017 0.052 0.026 0.069 0.035l1.756 0.588v1.358z"></path>
<path fill="#95e1d3" style="fill: var(--color1, #95e1d3)" d="M16 6.4c-1.773 0-3.2 1.427-3.2 3.2 0 1.764 1.427 3.2 3.2 3.2 1.764 0 3.2-1.436 3.2-3.2-0.009-1.773-1.436-3.2-3.2-3.2zM16 11.728c-1.185 0-2.136-0.951-2.136-2.128 0-1.185 0.951-2.136 2.136-2.136 1.176 0 2.128 0.951 2.128 2.136 0 1.176-0.951 2.128-2.128 2.128z"></path>
</symbol>
<symbol id="icon-marketing" viewBox="0 0 32 32">
<path fill="#95e1d3" style="fill: var(--color1, #95e1d3)" d="M11.728 13.328v-11.728c0-0.908-0.692-1.6-1.6-1.6h-5.336c-0.899 0-1.6 0.692-1.6 1.6v11.728c0 0.908 0.701 1.6 1.6 1.6h5.336c0.908 0 1.6-0.692 1.6-1.6zM10.664 11.728h-6.4v-8.528h6.4v8.528zM4.791 1.064h5.336c0.32 0 0.536 0.208 0.536 0.536v0.528h-6.4v-0.528c0-0.329 0.208-0.536 0.528-0.536zM4.264 13.328v-0.528h6.4v0.528c0 0.32-0.216 0.536-0.536 0.536h-5.336c-0.32 0-0.528-0.216-0.528-0.536z"></path>
<path fill="#95e1d3" style="fill: var(--color1, #95e1d3)" d="M9.92 7.464l-4.056-3.252v6.504l4.056-3.252zM6.928 6.452l1.28 1.012-1.28 1.012v-2.024z"></path>
<path fill="#95e1d3" style="fill: var(--color1, #95e1d3)" d="M14.928 9.064c0-3.52 2.88-6.4 6.4-6.4 1.496 0 2.992 0.536 4.16 1.488l-1.168 1.176c-2.084-1.652-5.068-1.332-6.72 0.744-0.701 0.856-1.072 1.929-1.072 2.992h1.072c0-2.084 1.652-3.736 3.728-3.736 0.804 0 1.6 0.268 2.24 0.744l-1.168 1.176c-0.329-0.208-0.701-0.32-1.072-0.32-1.176 0-2.128 0.96-2.128 2.136h1.064c0-0.588 0.476-1.064 1.064-1.064 0.112 0 0.164 0 0.268 0.052l-0.64 0.64 0.744 0.744 0.64-0.64c0 0.104 0.061 0.156 0.061 0.268 0 0.588-0.484 1.064-1.072 1.064v1.072c1.176 0 2.136-0.96 2.136-2.136 0-0.372-0.112-0.744-0.32-1.064l1.176-1.176c1.219 1.652 0.899 3.996-0.752 5.224-0.64 0.484-1.436 0.752-2.24 0.752v1.064c2.672 0 4.8-2.136 4.8-4.8 0-1.064-0.372-2.136-1.064-2.992l1.116-1.116c2.292 2.664 1.972 6.72-0.744 9.012-1.116 0.96-2.612 1.496-4.108 1.496v1.064c4.108 0 7.472-3.304 7.472-7.464 0-1.816-0.649-3.52-1.816-4.912l0.96-0.951h2.456v-1.072h-2.136v-2.128h-1.064v2.448l-0.96 0.96c-3.148-2.664-7.844-2.344-10.569 0.744-1.168 1.392-1.808 3.096-1.808 4.912h1.064z"></path>
<path fill="#95e1d3" style="fill: var(--color1, #95e1d3)" d="M26.128 19.728h-4.688l-10.136-3.728h-1.176c-0.908 0-1.6 0.692-1.6 1.6v10.664c0 0.908 0.692 1.6 1.6 1.6h1.176l10.136-4.264h1.488v4.8c0 0.899 0.692 1.6 1.6 1.6s1.6-0.701 1.6-1.6v-4.8c0.908 0 1.6-0.701 1.6-1.6v-2.672c0-0.908-0.692-1.6-1.6-1.6zM11.728 17.271l9.072 3.364v4.056l-9.072 3.84v-11.261zM9.6 28.264v-10.664c0-0.329 0.208-0.536 0.528-0.536h0.536v11.736h-0.536c-0.32 0-0.528-0.216-0.528-0.536zM25.064 30.4c0 0.32-0.216 0.528-0.536 0.528s-0.528-0.208-0.528-0.528v-4.8h1.064v4.8zM26.664 24c0 0.32-0.216 0.528-0.536 0.528h-4.264v-3.728h4.264c0.32 0 0.536 0.208 0.536 0.528v2.672z"></path>
<path fill="#95e1d3" style="fill: var(--color1, #95e1d3)" d="M5.328 21.864h2.136v1.064h-2.136v-1.064z"></path>
<path fill="#95e1d3" style="fill: var(--color1, #95e1d3)" d="M5.492 17.981l0.752-0.752 1.591 1.583-0.761 0.752-1.583-1.583z"></path>
<path fill="#95e1d3" style="fill: var(--color1, #95e1d3)" d="M5.492 26.811l1.583-1.583 0.752 0.752-1.583 1.583-0.752-0.752z"></path>
<path fill="#95e1d3" style="fill: var(--color1, #95e1d3)" d="M13.864 10.179v0.536c0 3.2 2.612 5.812 5.812 5.812h0.588v-6.4h-5.864l-0.536 0.052zM19.2 11.2v4.264c-2.249-0.216-4.004-2.024-4.221-4.264h4.221z"></path>
<path fill="#95e1d3" style="fill: var(--color1, #95e1d3)" d="M12.8 1.6h3.2v1.064h-3.2v-1.064z"></path>
<path fill="#95e1d3" style="fill: var(--color1, #95e1d3)" d="M29.864 11.2v10.128c0 0.32-0.216 0.536-0.536 0.536h-0.528v1.064h0.528c0.908 0 1.6-0.692 1.6-1.6v-10.128h-1.064z"></path>
<path fill="#95e1d3" style="fill: var(--color1, #95e1d3)" d="M2.128 21.328v-10.128h-1.064v10.128c0 0.908 0.692 1.6 1.6 1.6h1.6v-1.064h-1.6c-0.32 0-0.536-0.216-0.536-0.536z"></path>
</symbol>
<symbol id="icon-paper" viewBox="0 0 35 32">
<path fill="#95e1d3" style="fill: var(--color1, #95e1d3)" d="M7.263 19.311c-0.107 0-0.214-0.041-0.288-0.124-0.082-0.074-0.124-0.181-0.124-0.288v-15.144c0.016-1.005 0.428-1.968 1.153-2.668 0.716-0.7 1.688-1.095 2.693-1.087h17.566c0.107 0 0.214 0.041 0.296 0.124 0.074 0.074 0.115 0.181 0.115 0.288s-0.041 0.214-0.115 0.288c-0.082 0.082-0.189 0.124-0.296 0.124h-17.566c-0.791-0.008-1.548 0.296-2.116 0.848-0.56 0.552-0.889 1.301-0.906 2.092v15.136c0 0.107-0.041 0.214-0.124 0.288-0.074 0.082-0.181 0.124-0.288 0.124z"></path>
<path fill="#95e1d3" style="fill: var(--color1, #95e1d3)" d="M27.398 7.7h-2.569c-0.107 0-0.214-0.041-0.288-0.124-0.082-0.074-0.124-0.181-0.124-0.288s0.041-0.214 0.124-0.288c0.074-0.082 0.181-0.124 0.288-0.124h1.68c-0.156-0.305-0.255-0.634-0.272-0.972-0.025-0.346 0.025-0.684 0.148-1.005h-1.556c-0.107 0-0.214-0.041-0.288-0.115-0.082-0.082-0.124-0.181-0.124-0.296 0-0.107 0.041-0.214 0.124-0.288 0.074-0.074 0.181-0.124 0.288-0.124h2.207c0.074 0 0.148 0.025 0.214 0.058 0.058 0.041 0.115 0.099 0.148 0.165s0.049 0.14 0.049 0.214c0 0.074-0.025 0.14-0.066 0.206-0.091 0.132-0.84 1.359 0.272 2.248 0.066 0.049 0.115 0.124 0.14 0.206s0.025 0.173-0.008 0.247c-0.025 0.082-0.082 0.156-0.148 0.206-0.074 0.049-0.156 0.074-0.239 0.074z"></path>
<path fill="#95e1d3" style="fill: var(--color1, #95e1d3)" d="M24.829 22.441c-0.107 0-0.214-0.049-0.288-0.124-0.082-0.074-0.124-0.181-0.124-0.288v-18.274c0-0.107 0.041-0.214 0.124-0.288 0.074-0.082 0.181-0.124 0.288-0.124s0.214 0.041 0.288 0.124c0.082 0.074 0.124 0.181 0.124 0.288v18.274c0 0.107-0.041 0.214-0.124 0.288-0.074 0.074-0.181 0.124-0.288 0.124z"></path>
<path fill="#95e1d3" style="fill: var(--color1, #95e1d3)" d="M6.423 25.405c-0.683 0-1.334-0.239-1.853-0.675-0.082-0.066-0.165-0.14-0.239-0.214-0.461-0.461-0.791-1.038-0.939-1.68-0.156-0.634-0.132-1.301 0.066-1.919 0.198-0.626 0.568-1.178 1.062-1.606s1.104-0.708 1.746-0.815c0.025-0.008 0.041-0.008 0.066-0.008h15.704c0.107 0 0.206 0.041 0.28 0.107 0.082 0.074 0.124 0.165 0.132 0.272 0.008 0.099-0.016 0.206-0.082 0.288s-0.156 0.132-0.264 0.148c-0.494 0.082-0.955 0.305-1.334 0.634-0.379 0.321-0.659 0.749-0.815 1.227s-0.173 0.988-0.049 1.482c0.115 0.486 0.362 0.931 0.716 1.285 0.066 0.058 0.124 0.115 0.181 0.165 0.362 0.305 0.807 0.469 1.268 0.486h0.074c0.321 0 0.642-0.074 0.931-0.214 0.404-0.181 0.741-0.478 0.98-0.848s0.362-0.799 0.362-1.235c0-0.115 0.041-0.214 0.124-0.296 0.074-0.074 0.181-0.115 0.288-0.115s0.214 0.041 0.288 0.115c0.082 0.082 0.124 0.181 0.124 0.296 0 0.593-0.173 1.178-0.494 1.68s-0.774 0.898-1.318 1.145c-0.395 0.189-0.823 0.288-1.26 0.296-0.016 0-0.033 0-0.049 0h-15.663c-0.008 0-0.025 0-0.033 0zM6.366 19.311c-0.494 0.091-0.947 0.305-1.326 0.642-0.371 0.329-0.651 0.749-0.799 1.227s-0.165 0.988-0.049 1.474c0.124 0.486 0.371 0.931 0.725 1.276 0.058 0.066 0.124 0.115 0.181 0.173 0.362 0.296 0.815 0.469 1.285 0.478h13.728c-0.025-0.016-0.049-0.041-0.066-0.066-0.667-0.667-1.046-1.573-1.046-2.512 0-0.947 0.379-1.845 1.038-2.512 0.066-0.066 0.124-0.124 0.189-0.181h-13.86z"></path>
<path fill="#95e1d3" style="fill: var(--color1, #95e1d3)" d="M28.263 7.7h-0.758c-0.107 0-0.214-0.041-0.288-0.124-0.082-0.074-0.124-0.181-0.124-0.288s0.041-0.214 0.124-0.288c0.074-0.082 0.181-0.124 0.288-0.124h0.758c0.593 0 1.178-0.173 1.672-0.502s0.889-0.799 1.12-1.342c0.231-0.552 0.296-1.153 0.181-1.738-0.107-0.585-0.387-1.128-0.799-1.556-0.42-0.428-0.947-0.716-1.532-0.848-0.576-0.124-1.186-0.074-1.738 0.14-0.56 0.214-1.038 0.593-1.375 1.079-0.346 0.486-0.535 1.062-0.552 1.655 0 0.058-0.016 0.107-0.033 0.156-0.025 0.049-0.058 0.099-0.091 0.132-0.041 0.041-0.091 0.066-0.14 0.091-0.049 0.016-0.107 0.025-0.156 0.025-0.058 0-0.107-0.016-0.156-0.033-0.049-0.025-0.099-0.058-0.132-0.099-0.041-0.033-0.066-0.082-0.091-0.132-0.016-0.049-0.025-0.107-0.025-0.156 0.016-0.758 0.264-1.491 0.7-2.116 0.436-0.618 1.038-1.095 1.746-1.367 0.708-0.28 1.474-0.338 2.215-0.181 0.741 0.165 1.416 0.535 1.944 1.079 0.535 0.544 0.889 1.227 1.029 1.976 0.14 0.741 0.058 1.507-0.239 2.207s-0.791 1.293-1.416 1.713c-0.634 0.42-1.375 0.642-2.133 0.642v0z"></path>
<path fill="#95e1d3" style="fill: var(--color1, #95e1d3)" d="M22.457 4.398h-12.386c-0.107 0-0.214-0.041-0.288-0.115-0.082-0.082-0.124-0.181-0.124-0.296 0-0.107 0.041-0.214 0.124-0.288 0.074-0.074 0.181-0.124 0.288-0.124h12.386c0.107 0 0.214 0.049 0.288 0.124s0.124 0.181 0.124 0.288c0 0.115-0.049 0.214-0.124 0.296-0.074 0.074-0.181 0.115-0.288 0.115z"></path>
<path fill="#95e1d3" style="fill: var(--color1, #95e1d3)" d="M22.457 8.12h-3.311c-0.107 0-0.214-0.049-0.288-0.124-0.082-0.074-0.124-0.181-0.124-0.288 0-0.115 0.041-0.214 0.124-0.296 0.074-0.074 0.181-0.115 0.288-0.115h3.311c0.107 0 0.214 0.041 0.288 0.115 0.074 0.082 0.124 0.181 0.124 0.296 0 0.107-0.049 0.214-0.124 0.288s-0.181 0.124-0.288 0.124z"></path>
<path fill="#95e1d3" style="fill: var(--color1, #95e1d3)" d="M11.010 8.12h-0.939c-0.107 0-0.214-0.049-0.288-0.124-0.082-0.074-0.124-0.181-0.124-0.288 0-0.115 0.041-0.214 0.124-0.296 0.074-0.074 0.181-0.115 0.288-0.115h0.939c0.115 0 0.214 0.041 0.296 0.115 0.074 0.082 0.115 0.181 0.115 0.296 0 0.107-0.041 0.214-0.115 0.288-0.082 0.074-0.181 0.124-0.296 0.124z"></path>
<path fill="#95e1d3" style="fill: var(--color1, #95e1d3)" d="M22.457 11.834h-3.138c-0.107 0-0.214-0.041-0.296-0.124-0.074-0.074-0.115-0.181-0.115-0.288s0.041-0.214 0.115-0.296c0.082-0.074 0.189-0.115 0.296-0.115h3.138c0.107 0 0.214 0.041 0.288 0.115 0.074 0.082 0.124 0.189 0.124 0.296s-0.049 0.214-0.124 0.288c-0.074 0.082-0.181 0.124-0.288 0.124z"></path>
<path fill="#95e1d3" style="fill: var(--color1, #95e1d3)" d="M10.541 11.834h-0.469c-0.107 0-0.214-0.041-0.288-0.124-0.082-0.074-0.124-0.181-0.124-0.288s0.041-0.214 0.124-0.296c0.074-0.074 0.181-0.115 0.288-0.115h0.469c0.107 0 0.214 0.041 0.296 0.115 0.074 0.082 0.115 0.189 0.115 0.296s-0.041 0.214-0.115 0.288c-0.082 0.082-0.189 0.124-0.296 0.124z"></path>
<path fill="#95e1d3" style="fill: var(--color1, #95e1d3)" d="M22.457 15.548h-0.445c-0.107 0-0.214-0.041-0.296-0.124-0.074-0.074-0.115-0.181-0.115-0.288s0.041-0.214 0.115-0.288c0.082-0.082 0.189-0.124 0.296-0.124h0.445c0.107 0 0.214 0.041 0.288 0.124 0.074 0.074 0.124 0.181 0.124 0.288s-0.049 0.214-0.124 0.288c-0.074 0.082-0.181 0.124-0.288 0.124z"></path>
<path fill="#95e1d3" style="fill: var(--color1, #95e1d3)" d="M15.63 15.548h-5.559c-0.107 0-0.214-0.041-0.296-0.124-0.074-0.074-0.115-0.181-0.115-0.288s0.041-0.214 0.115-0.288c0.082-0.082 0.189-0.124 0.296-0.124h5.559c0.107 0 0.214 0.041 0.288 0.124 0.082 0.074 0.124 0.181 0.124 0.288s-0.041 0.214-0.124 0.288c-0.074 0.082-0.181 0.124-0.288 0.124z"></path>
<path fill="#95e1d3" style="fill: var(--color1, #95e1d3)" d="M14.799 13.901c-0.56 0-1.112-0.14-1.614-0.404-0.494-0.272-0.914-0.651-1.227-1.12s-0.511-1.005-0.56-1.565c-0.058-0.56 0.025-1.128 0.239-1.647 0.222-0.519 0.56-0.98 0.996-1.334s0.947-0.601 1.499-0.708c0.552-0.115 1.128-0.082 1.663 0.082s1.029 0.453 1.425 0.856c0.478 0.478 0.807 1.087 0.939 1.746 0.132 0.667 0.066 1.351-0.198 1.976-0.255 0.626-0.7 1.161-1.26 1.54-0.56 0.371-1.227 0.576-1.902 0.576zM14.799 7.881c-0.601 0-1.186 0.206-1.647 0.585-0.461 0.387-0.782 0.914-0.898 1.507-0.115 0.585-0.025 1.202 0.255 1.729s0.741 0.947 1.301 1.178c0.552 0.231 1.169 0.255 1.746 0.082s1.071-0.544 1.408-1.038c0.329-0.502 0.478-1.104 0.42-1.705-0.058-0.593-0.321-1.153-0.749-1.581-0.239-0.239-0.527-0.428-0.84-0.56s-0.651-0.198-0.996-0.198v0z"></path>
<path fill="#95e1d3" style="fill: var(--color1, #95e1d3)" d="M13.991 10.887c-0.272 0-0.527-0.091-0.741-0.264-0.206-0.173-0.346-0.412-0.404-0.675-0.049-0.264-0.008-0.535 0.115-0.774 0.132-0.239 0.338-0.428 0.585-0.527 0.247-0.107 0.527-0.124 0.782-0.041 0.264 0.082 0.486 0.247 0.634 0.469s0.214 0.494 0.189 0.758c-0.025 0.272-0.148 0.527-0.338 0.716-0.107 0.107-0.239 0.189-0.379 0.247s-0.288 0.091-0.445 0.091zM13.991 9.38c-0.082 0-0.156 0.025-0.214 0.074-0.066 0.049-0.107 0.124-0.124 0.198-0.016 0.082 0 0.165 0.033 0.231 0.041 0.074 0.099 0.124 0.173 0.156s0.156 0.033 0.231 0.008c0.074-0.016 0.14-0.066 0.189-0.132 0.041-0.066 0.058-0.148 0.058-0.231-0.008-0.074-0.049-0.148-0.099-0.206-0.033-0.033-0.074-0.058-0.115-0.074s-0.082-0.025-0.132-0.025z"></path>
<path fill="#95e1d3" style="fill: var(--color1, #95e1d3)" d="M19.311 16.824c-0.107 0-0.214-0.041-0.288-0.124l-3.203-3.203c-0.041-0.041-0.074-0.082-0.099-0.132-0.016-0.049-0.033-0.107-0.033-0.165 0-0.049 0.016-0.107 0.033-0.156 0.025-0.049 0.049-0.099 0.091-0.132 0.041-0.041 0.082-0.074 0.132-0.091 0.058-0.025 0.107-0.033 0.165-0.033 0.049 0 0.107 0.008 0.156 0.033s0.099 0.049 0.132 0.091l3.080 3.080 0.791-0.049 0.049-0.791-0.066-0.066-0.675-0.082c-0.091-0.008-0.181-0.049-0.247-0.115s-0.107-0.156-0.115-0.247l-0.058-0.486-0.486-0.058c-0.099-0.008-0.181-0.049-0.247-0.115s-0.107-0.156-0.115-0.247l-0.082-0.675-0.988-0.988c-0.074-0.074-0.115-0.181-0.115-0.288s0.049-0.214 0.124-0.288c0.074-0.074 0.181-0.124 0.288-0.124s0.214 0.041 0.288 0.115l1.087 1.095c0.066 0.066 0.107 0.148 0.115 0.239l0.058 0.494 0.494 0.058c0.091 0.008 0.173 0.049 0.239 0.115s0.115 0.148 0.124 0.247l0.058 0.486 0.486 0.058c0.099 0.008 0.181 0.049 0.247 0.115l0.296 0.305c0.041 0.041 0.074 0.091 0.099 0.14 0.016 0.058 0.025 0.115 0.025 0.173l-0.082 1.342c0 0.107-0.049 0.198-0.115 0.272-0.074 0.066-0.165 0.115-0.272 0.115l-1.342 0.082h-0.025z"></path>
</symbol>
</defs>
</svg>
